<svg width="19" height="19" viewBox="0 0 19 19" fill="none" xmlns="http://www.w3.org/2000/svg">
<path d="M18.3848 18.3848C17.9943 18.7753 17.3611 18.7753 16.9706 18.3848L0.707107 2.12132C0.316583 1.7308 0.316583 1.09763 0.707107 0.707107C1.09763 0.316583 1.7308 0.316582 2.12132 0.707107L18.3848 16.9706C18.7753 17.3611 18.7753 17.9943 18.3848 18.3848Z" fill="black"/>
<path d="M0.707107 18.3848C0.316582 17.9943 0.316582 17.3611 0.707107 16.9706L16.9706 0.707107C17.3611 0.316583 17.9943 0.316583 18.3848 0.707107C18.7753 1.09763 18.7753 1.7308 18.3848 2.12132L2.12132 18.3848C1.7308 18.7753 1.09763 18.7753 0.707107 18.3848Z" fill="black"/>
</svg>
