<svg width="20" height="20" viewBox="0 0 20 20" fill="none" xmlns="http://www.w3.org/2000/svg">
<path d="M9.28023 20C8.92409 19.9464 8.56593 19.9042 8.21261 19.8373C4.23294 19.0886 1.11237 16.0673 0.236734 12.1214C-0.94906 6.7784 2.43731 1.46514 7.80323 0.248327C13.1881 -0.972916 18.5472 2.43159 19.7499 7.84266C20.152 9.65158 20.0746 11.444 19.4708 13.1982C19.0037 14.5559 18.0261 15.3529 16.6011 15.4817C15.1717 15.6109 14.0686 15.0007 13.3317 13.7593C13.3047 13.7134 13.2785 13.6671 13.251 13.6204C11.1033 15.4889 8.16905 15.1089 6.50612 13.3837C4.85649 11.6726 4.7125 8.98662 6.16933 7.0819C7.54187 5.28747 10.4273 4.42447 12.8896 6.15449C12.9235 5.84777 13.0385 5.58614 13.2922 5.4046C13.6088 5.17839 13.952 5.14417 14.2977 5.31605C14.6429 5.48752 14.8329 5.77733 14.8333 6.16858C14.8357 8.13006 14.8333 10.0915 14.8349 12.053C14.8353 12.7514 15.2181 13.2988 15.8356 13.4964C16.6011 13.7416 17.3626 13.362 17.6272 12.6037C19.1602 8.21258 16.4668 3.31351 11.9297 2.2408C7.5943 1.21558 3.36578 3.74018 2.21991 8.03869C1.08091 12.3106 3.76951 16.8056 8.08314 17.83C10.199 18.3323 12.208 18.0437 14.0863 16.9501C14.7752 16.5492 15.5549 16.9565 15.6145 17.6601C15.648 18.0546 15.4923 18.3706 15.1535 18.5762C14.1258 19.2001 13.0199 19.624 11.8353 19.8369C11.4816 19.9005 11.1247 19.946 10.7693 20C10.2728 20 9.77673 20 9.28023 20ZM7.10708 10.0428C7.10587 11.6191 8.41387 12.9225 10.0046 12.9297C11.578 12.9369 12.907 11.6127 12.9021 10.0416C12.8973 8.45288 11.5913 7.14308 10.0143 7.1455C8.41347 7.14831 7.10869 8.44845 7.10708 10.0428Z" fill="#EA8745"/>
</svg>
