<svg width="20" height="20" viewBox="0 0 20 20" fill="none" xmlns="http://www.w3.org/2000/svg">
<path d="M1.66846 1.24395C-1.58651 4.82109 0.146514 10.3423 4.91232 15.1303C9.57815 19.8073 15.3549 21.5736 18.7654 18.3853C20.6317 16.6412 20.3651 13.564 18.0544 11.5088C15.9659 9.73131 12.6887 9.43137 10.5891 11.3977C9.8892 10.7978 9.28931 10.0979 8.64498 9.44248C10.4558 7.55393 10.4447 4.24341 8.57833 2.02159C6.48982 -0.477959 3.31261 -0.566832 1.66846 1.24395ZM7.05638 3.29914C8.22284 4.71 8.38947 6.95404 7.00084 8.2538C6.30096 8.88702 5.6122 9.25362 8.14507 11.8309C10.8668 14.6082 11.2112 13.6306 11.9222 12.8863C13.0331 11.7643 15.2216 11.6643 16.7213 12.9974C18.3877 14.4749 18.1988 16.1857 17.4101 16.9189C14.9439 19.2185 10.2225 17.6299 6.33429 13.7195C2.4461 9.80908 0.713079 5.26545 3.14597 2.58816C3.70143 1.96605 5.47889 1.4217 7.05638 3.29914Z" fill="#EA8745"/>
</svg>
